<svg xmlns="http://www.w3.org/2000/svg" xmlns:xlink="http://www.w3.org/1999/xlink" version="1.1" x="0px" y="0px" viewBox="0 0 50 62.5" enable-background="new 0 0 50 50" xml:space="preserve"><g><polygon points="30.949,11.961 31.307,12.144 31.837,11.079 31.478,10.897  "/><polygon points="35.944,15.83 36.194,16.128 37.339,15.542 37.086,15.244  "/><polygon points="18.209,10.161 19.162,11.36 19.484,11.215 18.532,10.02  "/><polygon points="38.264,26.758 39.764,27.528 39.887,27.213 38.391,26.448  "/><polygon points="15.386,14.665 13.88,13.891 13.706,14.183 15.218,14.956  "/><path d="M27.596,20.522c-0.038-0.072-0.087-0.141-0.145-0.203s-0.124-0.118-0.196-0.167c-0.073-0.048-0.151-0.089-0.234-0.12   l-1.335-7.859l-0.599-0.038l1.316,7.869c-0.073,0.024-0.139,0.059-0.196,0.101c-0.057,0.042-0.104,0.094-0.142,0.151   c-0.037,0.058-0.063,0.123-0.078,0.193c-0.014,0.07-0.015,0.146-0.001,0.225c0.001,0.01,0.003,0.019,0.005,0.028   c0.002,0.009,0.004,0.019,0.007,0.027c0.003,0.009,0.006,0.018,0.009,0.027c0.003,0.009,0.006,0.019,0.009,0.027l-3.91,1.997   l-0.338-0.433l-1.094,1.519l2.164-0.146l-0.339-0.436l3.905-2.009c0.041,0.027,0.084,0.052,0.128,0.074   c0.043,0.022,0.089,0.041,0.136,0.057c0.046,0.016,0.094,0.029,0.143,0.039c0.049,0.01,0.098,0.016,0.148,0.018   c0.116,0.005,0.224-0.011,0.318-0.045c0.095-0.034,0.176-0.085,0.241-0.15c0.064-0.064,0.112-0.143,0.14-0.231   c0.027-0.087,0.034-0.185,0.017-0.289C27.66,20.671,27.633,20.595,27.596,20.522z"/><polygon points="12.05,19.781 12.11,20.348 14.714,20.461 14.649,19.897  "/><polygon points="15.122,26.479 15.383,26.82 16.787,26.099 16.529,25.761  "/><polygon points="28.355,31.684 28.758,34.091 29.409,34.1 29.002,31.695  "/><polygon points="21.164,31.623 21.569,31.828 22.236,30.482 21.833,30.278  "/><path d="M22.657,5.289c-6.44,0-12.519,3.171-14.511,9.338l-0.005-0.002c-2.255,7.002-6.555,14.652,1.745,23.424   c3.748,3.957,9.105,6.512,14.704,6.65l-0.008,0.012c0.702,0,0.497,0,0.723,0l0-0.002c3.481-0.043,6.84-1.051,9.516-3.135   c1.567-1.223,1.751-1.615,7.377-8.621l-0.003-0.002C50.726,22.331,38.539,5.289,22.657,5.289z M16.726,30.695   c-11.394-9.506-6.186-24.07,7.835-23.02c8.184,0.613,15.673,6.64,17.345,13.782C44.923,34.359,28.36,40.404,16.726,30.695z"/><polygon points="25.438,10.704 25.103,8.734 24.513,8.692 24.843,10.664  "/><polygon points="38.266,20.952 38.383,21.488 40.688,21.588 40.566,21.054  "/><polygon points="34.585,30.74 35.649,32.08 35.961,31.891 34.897,30.556  "/></g><text x="0" y="65" fill="#000000" font-size="5px" font-weight="bold" font-family="'Helvetica Neue', Helvetica, Arial-Unicode, Arial, Sans-serif">Created by Kick</text><text x="0" y="70" fill="#000000" font-size="5px" font-weight="bold" font-family="'Helvetica Neue', Helvetica, Arial-Unicode, Arial, Sans-serif">from the Noun Project</text></svg>